#N canvas 299 71 804 531 12;
#X obj 272 229 print;
#X obj 165 164 comport 3 115200;
#X msg 229 126 open 3;
#X msg 98 129 devices;
#X msg 312 119 close;
#X obj 365 265 serial_print;
#X obj 350 314 print;
#X text 113 353 for some reason it drops the first token. it says space
and comma are delimiters \, but that doesn't seem to work right;
#X text 140 433 but this works! one way or another. direct serial without
installing any bullshit.;
#X connect 1 0 5 0;
#X connect 1 1 0 0;
#X connect 2 0 1 0;
#X connect 3 0 1 0;
#X connect 4 0 1 0;
#X connect 5 0 6 0;
